<mxfile host="app.diagrams.net" modified="2023-01-18T04:46:50.384Z" agent="5.0 (Windows NT 10.0; Win64; x64) AppleWebKit/537.36 (KHTML, like Gecko) Chrome/108.0.0.0 Safari/537.36" version="20.8.5" etag="0HZ91Y_FxS6tZMlg7v9a" type="github">
  <diagram id="CIeEKz_Z0Q6_gTP2dyAd" name="Page-1">
    <mxGraphModel dx="1436" dy="841" grid="1" gridSize="10" guides="1" tooltips="1" connect="1" arrows="1" fold="1" page="1" pageScale="1" pageWidth="850" pageHeight="1100" math="0" shadow="0">
      <root>
        <mxCell id="0" />
        <mxCell id="1" parent="0" />
        <mxCell id="YBAX6xMiI4Egs1VmH1rv-26" value="" style="endArrow=open;html=1;rounded=0;entryX=0.5;entryY=0;entryDx=0;entryDy=0;exitX=0.507;exitY=1.038;exitDx=0;exitDy=0;exitPerimeter=0;dashed=1;endFill=0;" edge="1" parent="1">
          <mxGeometry width="50" height="50" relative="1" as="geometry">
            <mxPoint x="441.19000000000005" y="161.29200000000003" as="sourcePoint" />
            <mxPoint x="435" y="230" as="targetPoint" />
          </mxGeometry>
        </mxCell>
        <mxCell id="YBAX6xMiI4Egs1VmH1rv-27" value="" style="endArrow=open;html=1;rounded=0;entryX=0.5;entryY=0;entryDx=0;entryDy=0;dashed=1;endFill=0;exitX=0.5;exitY=1;exitDx=0;exitDy=0;exitPerimeter=0;" edge="1" parent="1">
          <mxGeometry width="50" height="50" relative="1" as="geometry">
            <mxPoint x="440" y="160" as="sourcePoint" />
            <mxPoint x="660" y="256" as="targetPoint" />
          </mxGeometry>
        </mxCell>
        <mxCell id="YBAX6xMiI4Egs1VmH1rv-28" value="" style="endArrow=open;html=1;rounded=0;entryX=1;entryY=0.5;entryDx=0;entryDy=0;dashed=1;endFill=0;exitX=0;exitY=0.5;exitDx=0;exitDy=0;" edge="1" parent="1">
          <mxGeometry width="50" height="50" relative="1" as="geometry">
            <mxPoint x="570" y="304" as="sourcePoint" />
            <mxPoint x="530" y="304" as="targetPoint" />
          </mxGeometry>
        </mxCell>
        <mxCell id="YBAX6xMiI4Egs1VmH1rv-30" value="" style="endArrow=classic;html=1;rounded=0;entryX=1;entryY=0.5;entryDx=0;entryDy=0;exitX=0;exitY=0.5;exitDx=0;exitDy=0;" edge="1" parent="1">
          <mxGeometry width="50" height="50" relative="1" as="geometry">
            <mxPoint x="340" y="304" as="sourcePoint" />
            <mxPoint x="300" y="310" as="targetPoint" />
          </mxGeometry>
        </mxCell>
        <mxCell id="YBAX6xMiI4Egs1VmH1rv-31" value="class Atbash" style="swimlane;fontStyle=1;align=center;verticalAlign=top;childLayout=stackLayout;horizontal=1;startSize=26;horizontalStack=0;resizeParent=1;resizeParentMax=0;resizeLast=0;collapsible=1;marginBottom=0;" vertex="1" parent="1">
          <mxGeometry x="120" y="81" width="180" height="86" as="geometry" />
        </mxCell>
        <mxCell id="YBAX6xMiI4Egs1VmH1rv-32" value="+ string processText { get; set; }" style="text;strokeColor=none;fillColor=none;align=left;verticalAlign=top;spacingLeft=4;spacingRight=4;overflow=hidden;rotatable=0;points=[[0,0.5],[1,0.5]];portConstraint=eastwest;" vertex="1" parent="YBAX6xMiI4Egs1VmH1rv-31">
          <mxGeometry y="26" width="180" height="26" as="geometry" />
        </mxCell>
        <mxCell id="YBAX6xMiI4Egs1VmH1rv-33" value="" style="line;strokeWidth=1;fillColor=none;align=left;verticalAlign=middle;spacingTop=-1;spacingLeft=3;spacingRight=3;rotatable=0;labelPosition=right;points=[];portConstraint=eastwest;strokeColor=inherit;" vertex="1" parent="YBAX6xMiI4Egs1VmH1rv-31">
          <mxGeometry y="52" width="180" height="8" as="geometry" />
        </mxCell>
        <mxCell id="YBAX6xMiI4Egs1VmH1rv-34" value="+ string Code()" style="text;strokeColor=none;fillColor=none;align=left;verticalAlign=top;spacingLeft=4;spacingRight=4;overflow=hidden;rotatable=0;points=[[0,0.5],[1,0.5]];portConstraint=eastwest;" vertex="1" parent="YBAX6xMiI4Egs1VmH1rv-31">
          <mxGeometry y="60" width="180" height="26" as="geometry" />
        </mxCell>
        <mxCell id="YBAX6xMiI4Egs1VmH1rv-35" value="" style="endArrow=open;html=1;rounded=0;entryX=0.5;entryY=0;entryDx=0;entryDy=0;dashed=1;endFill=0;" edge="1" parent="1">
          <mxGeometry width="50" height="50" relative="1" as="geometry">
            <mxPoint x="210" y="170" as="sourcePoint" />
            <mxPoint x="215" y="230" as="targetPoint" />
          </mxGeometry>
        </mxCell>
        <mxCell id="YBAX6xMiI4Egs1VmH1rv-37" value="class MD5" style="swimlane;fontStyle=1;align=center;verticalAlign=top;childLayout=stackLayout;horizontal=1;startSize=26;horizontalStack=0;resizeParent=1;resizeParentMax=0;resizeLast=0;collapsible=1;marginBottom=0;" vertex="1" parent="1">
          <mxGeometry x="360" y="87" width="170" height="74" as="geometry" />
        </mxCell>
        <mxCell id="YBAX6xMiI4Egs1VmH1rv-39" value="" style="line;strokeWidth=1;fillColor=none;align=left;verticalAlign=middle;spacingTop=-1;spacingLeft=3;spacingRight=3;rotatable=0;labelPosition=right;points=[];portConstraint=eastwest;strokeColor=inherit;" vertex="1" parent="YBAX6xMiI4Egs1VmH1rv-37">
          <mxGeometry y="26" width="170" height="8" as="geometry" />
        </mxCell>
        <mxCell id="YBAX6xMiI4Egs1VmH1rv-40" value="+ string hashPassword(string &#xa;Password)" style="text;strokeColor=none;fillColor=none;align=left;verticalAlign=top;spacingLeft=4;spacingRight=4;overflow=hidden;rotatable=0;points=[[0,0.5],[1,0.5]];portConstraint=eastwest;" vertex="1" parent="YBAX6xMiI4Egs1VmH1rv-37">
          <mxGeometry y="34" width="170" height="40" as="geometry" />
        </mxCell>
        <mxCell id="YBAX6xMiI4Egs1VmH1rv-41" value="class FormReg" style="swimlane;fontStyle=1;align=center;verticalAlign=top;childLayout=stackLayout;horizontal=1;startSize=26;horizontalStack=0;resizeParent=1;resizeParentMax=0;resizeLast=0;collapsible=1;marginBottom=0;" vertex="1" parent="1">
          <mxGeometry x="570" y="260" width="190" height="74" as="geometry" />
        </mxCell>
        <mxCell id="YBAX6xMiI4Egs1VmH1rv-43" value="" style="line;strokeWidth=1;fillColor=none;align=left;verticalAlign=middle;spacingTop=-1;spacingLeft=3;spacingRight=3;rotatable=0;labelPosition=right;points=[];portConstraint=eastwest;strokeColor=inherit;" vertex="1" parent="YBAX6xMiI4Egs1VmH1rv-41">
          <mxGeometry y="26" width="190" height="8" as="geometry" />
        </mxCell>
        <mxCell id="YBAX6xMiI4Egs1VmH1rv-44" value="- void buttonSignUp_Click(object&#xa;sender, System.EventArgs e)" style="text;strokeColor=none;fillColor=none;align=left;verticalAlign=top;spacingLeft=4;spacingRight=4;overflow=hidden;rotatable=0;points=[[0,0.5],[1,0.5]];portConstraint=eastwest;" vertex="1" parent="YBAX6xMiI4Egs1VmH1rv-41">
          <mxGeometry y="34" width="190" height="40" as="geometry" />
        </mxCell>
        <mxCell id="YBAX6xMiI4Egs1VmH1rv-45" value="class FormLogin" style="swimlane;fontStyle=1;align=center;verticalAlign=top;childLayout=stackLayout;horizontal=1;startSize=26;horizontalStack=0;resizeParent=1;resizeParentMax=0;resizeLast=0;collapsible=1;marginBottom=0;" vertex="1" parent="1">
          <mxGeometry x="340" y="230" width="190" height="104" as="geometry" />
        </mxCell>
        <mxCell id="YBAX6xMiI4Egs1VmH1rv-47" value="" style="line;strokeWidth=1;fillColor=none;align=left;verticalAlign=middle;spacingTop=-1;spacingLeft=3;spacingRight=3;rotatable=0;labelPosition=right;points=[];portConstraint=eastwest;strokeColor=inherit;" vertex="1" parent="YBAX6xMiI4Egs1VmH1rv-45">
          <mxGeometry y="26" width="190" height="8" as="geometry" />
        </mxCell>
        <mxCell id="YBAX6xMiI4Egs1VmH1rv-48" value="- void buttonSignUp_Click(object&#xa;  sender, EventArgs e)&#xa;- void buttonSignIn_Click(object&#xa;sender, EventArgs e)" style="text;strokeColor=none;fillColor=none;align=left;verticalAlign=top;spacingLeft=4;spacingRight=4;overflow=hidden;rotatable=0;points=[[0,0.5],[1,0.5]];portConstraint=eastwest;" vertex="1" parent="YBAX6xMiI4Egs1VmH1rv-45">
          <mxGeometry y="34" width="190" height="70" as="geometry" />
        </mxCell>
        <mxCell id="YBAX6xMiI4Egs1VmH1rv-49" value="class FormMain" style="swimlane;fontStyle=1;align=center;verticalAlign=top;childLayout=stackLayout;horizontal=1;startSize=26;horizontalStack=0;resizeParent=1;resizeParentMax=0;resizeLast=0;collapsible=1;marginBottom=0;" vertex="1" parent="1">
          <mxGeometry x="100" y="230" width="200" height="104" as="geometry" />
        </mxCell>
        <mxCell id="YBAX6xMiI4Egs1VmH1rv-51" value="" style="line;strokeWidth=1;fillColor=none;align=left;verticalAlign=middle;spacingTop=-1;spacingLeft=3;spacingRight=3;rotatable=0;labelPosition=right;points=[];portConstraint=eastwest;strokeColor=inherit;" vertex="1" parent="YBAX6xMiI4Egs1VmH1rv-49">
          <mxGeometry y="26" width="200" height="8" as="geometry" />
        </mxCell>
        <mxCell id="YBAX6xMiI4Egs1VmH1rv-52" value="- void buttonConvert_Click(object&#xa; sender, EventArgs e)&#xa;- void button1_Click(object&#xa;sender, EventArgs e)" style="text;strokeColor=none;fillColor=none;align=left;verticalAlign=top;spacingLeft=4;spacingRight=4;overflow=hidden;rotatable=0;points=[[0,0.5],[1,0.5]];portConstraint=eastwest;" vertex="1" parent="YBAX6xMiI4Egs1VmH1rv-49">
          <mxGeometry y="34" width="200" height="70" as="geometry" />
        </mxCell>
      </root>
    </mxGraphModel>
  </diagram>
</mxfile>
